<?xml version="1.0" standalone="no"?>
<!DOCTYPE svg PUBLIC "-//W3C//DTD SVG 20010904//EN"
 "http://www.w3.org/TR/2001/REC-SVG-20010904/DTD/svg10.dtd">
<svg version="1.0" xmlns="http://www.w3.org/2000/svg"
 width="298.000000pt" height="308.000000pt" viewBox="0 0 298.000000 308.000000"
 preserveAspectRatio="xMidYMid meet">

<g transform="translate(0.000000,308.000000) scale(0.100000,-0.100000)"
fill="#ff1493" stroke="none">
<path d="M574 3029 c-72 -12 -173 -50 -240 -90 -164 -99 -266 -262 -310 -495
-46 -247 21 -647 162 -958 l54 -120 -31 -48 c-97 -151 -104 -286 -17 -342 36
-23 128 -46 214 -54 l79 -7 54 -95 c29 -52 111 -208 182 -345 138 -267 182
-329 263 -366 49 -22 117 -24 155 -4 72 37 154 159 211 315 17 47 42 104 56
127 42 73 106 103 144 68 10 -9 59 -108 110 -220 114 -252 152 -300 247 -318
101 -19 244 94 321 253 26 55 59 153 91 275 27 105 60 216 72 247 24 64 16 61
179 72 153 11 248 58 270 135 20 71 -25 193 -113 309 -44 59 -48 70 -39 92 5
14 33 81 62 150 90 220 155 434 181 600 14 94 6 294 -15 375 -29 107 -83 204
-155 276 -191 192 -498 226 -896 100 -33 -10 -108 -37 -167 -60 -234 -90 -386
-77 -703 59 -171 73 -285 92 -421 69z m306 -48 c35 -12 125 -52 199 -87 237
-113 356 -140 584 -131 78 3 156 10 172 16 25 9 20 9 -25 4 -84 -10 -256 -6
-345 7 -116 17 -126 29 -25 30 94 0 180 20 307 71 269 108 545 146 727 99 260
-66 413 -260 441 -560 24 -253 -97 -650 -362 -1188 l-95 -194 -87 7 c-47 4
-113 12 -146 19 l-60 12 -6 48 c-5 51 -21 70 -71 88 -16 5 -28 17 -28 26 0 31
-47 118 -76 141 -20 16 -37 21 -56 17 -21 -4 -30 -1 -38 13 -5 11 -25 24 -44
31 -41 13 -87 -3 -125 -44 -19 -20 -34 -26 -64 -26 -72 0 -147 -60 -147 -118
0 -33 28 -47 87 -45 30 2 63 -2 73 -7 18 -10 66 -78 59 -84 -2 -2 -29 -11 -59
-21 -121 -38 -178 -92 -147 -139 13 -19 24 -21 173 -23 148 -2 162 -4 208 -28
73 -37 130 -32 178 18 l23 25 90 -19 c50 -10 111 -19 138 -19 53 0 56 -6 31
-65 -8 -21 -38 -124 -65 -229 -61 -233 -111 -344 -192 -427 -88 -90 -170 -119
-236 -84 -56 28 -98 95 -191 298 -50 111 -100 211 -111 222 -27 27 -87 26
-124 -3 -47 -37 -72 -80 -116 -196 -49 -129 -86 -196 -142 -254 -76 -79 -112
-87 -196 -46 -73 37 -126 108 -215 289 -41 83 -114 224 -164 315 -50 91 -88
167 -86 169 2 2 52 8 112 12 59 5 140 17 180 27 l74 19 15 -24 c37 -57 111
-68 189 -28 45 24 60 26 204 28 85 2 161 6 168 10 16 10 16 58 0 80 -16 19
-97 60 -155 78 -24 7 -43 14 -43 16 0 12 31 60 47 76 15 13 34 17 80 15 94 -4
121 37 67 102 -35 41 -74 60 -125 60 -32 0 -45 5 -62 26 -31 40 -81 58 -123
44 -19 -7 -39 -20 -44 -31 -8 -14 -17 -18 -34 -13 -54 13 -114 -52 -132 -143
-5 -25 -14 -35 -40 -43 -43 -14 -64 -44 -64 -91 0 -35 -1 -36 -52 -48 -84 -19
-246 -34 -302 -27 l-52 7 -106 202 c-138 261 -161 314 -209 477 -61 208 -82
340 -82 510 1 350 119 572 368 695 108 54 163 65 295 62 88 -3 130 -9 180 -26z
m370 -1590 c40 -42 55 -87 41 -125 -11 -26 -30 -36 -71 -36 -23 0 -29 5 -34
30 -3 17 -19 51 -36 75 -25 36 -29 49 -21 64 24 44 75 41 121 -8z m594 33 c35
-13 38 -42 10 -79 -14 -19 -32 -52 -39 -72 -11 -33 -17 -38 -48 -41 -78 -7
-88 89 -17 160 36 37 61 45 94 32z m-721 -100 c44 -67 47 -97 12 -120 -23 -15
-27 -15 -50 0 -14 10 -35 31 -45 49 -26 42 -26 27 0 -23 30 -60 83 -78 122
-43 12 11 37 17 68 17 28 1 50 0 50 -2 0 -1 -11 -20 -25 -42 -22 -35 -30 -40
-63 -41 -28 -1 -21 -4 33 -14 121 -22 235 -77 235 -113 0 -24 -29 -33 -78 -24
-30 5 -76 5 -114 0 -34 -5 -80 -7 -100 -4 -29 5 -45 1 -74 -19 -46 -31 -110
-34 -146 -6 -29 23 -74 119 -84 177 -5 37 -3 43 21 62 43 34 59 28 73 -23 8
-29 28 -61 57 -91 47 -49 78 -55 33 -6 -94 103 -107 185 -42 285 18 28 31 37
52 37 23 0 35 -10 65 -56z m841 50 c23 -9 53 -63 66 -117 9 -42 8 -55 -10 -94
-11 -26 -37 -66 -56 -90 -49 -60 -34 -68 20 -11 27 28 48 63 57 92 16 54 36
60 75 20 22 -21 25 -31 19 -62 -10 -56 -63 -160 -91 -178 -32 -21 -116 -14
-145 11 -24 23 -143 31 -313 22 -18 -1 -33 5 -40 16 -9 15 -6 22 19 43 39 31
122 63 210 79 58 11 63 13 30 14 -36 1 -42 5 -62 41 -13 21 -23 40 -23 42 0 2
22 3 49 2 32 0 55 -6 66 -17 22 -23 67 -21 93 3 25 23 56 79 48 87 -2 3 -11
-8 -20 -24 -20 -40 -41 -55 -72 -55 -56 0 -59 59 -6 131 36 49 53 58 86 45z
m-566 -35 c45 -22 69 -56 59 -83 -4 -11 -22 -14 -74 -13 l-68 2 -1 58 c0 51 2
57 20 57 11 0 39 -10 64 -21z m287 -36 l0 -58 -65 -1 c-81 -2 -95 7 -74 48 16
30 81 67 119 68 18 0 20 -7 20 -57z m969 -70 c44 -71 63 -132 45 -144 -17 -10
-127 -29 -172 -29 l-37 0 57 115 c32 63 61 115 65 115 3 0 23 -26 42 -57z
m-2283 -105 c16 -32 29 -60 29 -63 0 -5 -19 -2 -92 16 -31 8 -38 14 -38 35 0
14 10 43 21 66 20 40 22 41 36 22 8 -10 28 -45 44 -76z"/>
<path d="M1859 2204 c-7 -9 -12 -33 -12 -54 2 -34 -1 -38 -28 -44 -57 -11 -28
-21 57 -19 87 2 116 9 76 20 -18 4 -22 12 -22 47 0 61 -39 88 -71 50z"/>
<path d="M1160 2151 c0 -5 14 -12 30 -16 31 -7 32 -25 2 -25 -22 0 -48 -17
-40 -26 11 -10 138 29 138 42 0 6 -26 16 -57 23 -68 13 -73 14 -73 2z"/>
<path d="M1082 1974 c-32 -22 -27 -43 13 -60 65 -27 155 -11 163 29 8 39 -130
64 -176 31z"/>
<path d="M1952 1980 c-35 -15 -39 -40 -11 -63 33 -26 131 -19 163 12 19 20 19
22 3 38 -19 20 -119 28 -155 13z"/>
<path d="M1539 1759 c-17 -17 -20 -29 -16 -56 10 -57 33 -85 70 -81 36 3 77
54 77 94 0 58 -88 86 -131 43z m107 -23 c7 -19 -23 -83 -43 -90 -9 -4 -22 -1
-29 5 -16 13 -29 73 -19 88 10 17 85 14 91 -3z"/>
<path d="M1564 1560 c-34 -14 -41 -32 -7 -19 15 5 38 8 50 4 13 -3 23 -1 23 5
0 5 -4 10 -9 10 -5 0 -15 2 -23 4 -7 3 -23 1 -34 -4z"/>
</g>
</svg>
