<?xml version="1.0" standalone="no"?>
<!DOCTYPE svg PUBLIC "-//W3C//DTD SVG 20010904//EN"
 "http://www.w3.org/TR/2001/REC-SVG-20010904/DTD/svg10.dtd">
<svg version="1.0" xmlns="http://www.w3.org/2000/svg"
 width="100px" height="100px" viewBox="0 0 308.000000 279.000000"
 preserveAspectRatio="xMidYMid meet">

<g transform="translate(0.000000,279.000000) scale(0.100000,-0.100000)"
fill="#ff1493" stroke="none">
<path d="M1846 2772 c-2 -4 -7 -24 -11 -45 -8 -42 -14 -48 -69 -62 -48 -13
-57 -32 -19 -40 56 -12 77 -29 88 -72 5 -23 13 -45 17 -49 8 -7 23 25 33 69 6
28 24 40 78 51 40 9 33 32 -12 40 -50 8 -67 24 -75 75 -6 38 -18 52 -30 33z"/>
<path d="M2367 2603 c-3 -5 -8 -27 -12 -50 -8 -51 -27 -69 -85 -80 -28 -5 -45
-14 -45 -23 0 -9 17 -18 45 -23 57 -11 76 -30 87 -87 12 -64 39 -67 48 -6 10
62 25 79 81 91 67 14 72 40 9 50 -59 8 -81 30 -89 89 -5 29 -12 46 -21 46 -8
0 -16 -3 -18 -7z"/>
<path d="M2015 2448 c-3 -13 -11 -54 -19 -91 -21 -101 -49 -125 -174 -148 -72
-12 -100 -32 -73 -49 7 -4 44 -13 82 -20 39 -6 68 -14 66 -17 -8 -8 -197 -74
-272 -95 -116 -32 -228 -13 -434 74 -72 31 -111 41 -170 45 -173 12 -350 -79
-432 -222 -34 -59 -46 -45 -32 38 13 76 4 92 -59 112 -51 16 -58 16 -133 0
-94 -21 -115 -40 -139 -126 -10 -33 -27 -69 -39 -80 -12 -10 -30 -26 -40 -35
-14 -11 -18 -27 -16 -58 2 -35 -8 -63 -54 -157 -71 -142 -79 -183 -43 -226 18
-21 41 -34 74 -42 41 -9 366 -41 419 -41 15 0 25 -20 48 -97 34 -114 88 -228
249 -522 65 -117 153 -284 197 -370 85 -166 136 -232 196 -252 93 -30 171 46
244 239 22 58 42 91 66 112 59 53 63 49 149 -140 81 -181 118 -223 193 -222
52 1 88 21 140 77 57 62 93 143 136 305 30 114 54 172 154 380 66 135 140 299
166 366 l48 121 206 17 c249 21 283 29 317 69 35 42 28 83 -35 212 -48 97 -49
102 -39 147 9 40 8 51 -6 74 -10 14 -26 29 -36 31 -19 5 -27 21 -55 109 -21
68 -46 88 -136 109 -71 17 -78 17 -127 1 -65 -22 -75 -39 -61 -105 15 -73 7
-82 -25 -27 -39 68 -101 124 -171 157 -33 16 -66 29 -72 29 -28 0 -11 19 20
22 24 2 32 8 32 23 0 16 -13 22 -82 36 -129 25 -143 39 -171 175 -13 58 -22
80 -34 82 -11 2 -19 -5 -23 -20z m-890 -343 c28 -10 97 -40 154 -67 150 -71
245 -91 397 -86 69 3 128 10 140 17 16 10 13 11 -21 6 -55 -9 -233 -6 -275 4
l-35 9 45 1 c49 1 119 20 275 75 55 20 109 36 121 36 34 0 53 -32 73 -124 10
-47 21 -89 24 -92 17 -17 36 10 46 63 19 101 34 136 68 159 28 19 38 20 85 12
122 -22 234 -102 287 -206 50 -97 63 -245 36 -387 -35 -184 -102 -360 -270
-705 -97 -198 -120 -256 -150 -370 -53 -202 -94 -281 -178 -341 -28 -20 -52
-29 -80 -29 -60 0 -99 48 -171 209 -33 73 -68 143 -78 157 -23 28 -54 31 -88
7 -42 -29 -58 -55 -89 -140 -35 -95 -64 -144 -115 -192 -45 -43 -90 -46 -141
-7 -47 36 -68 68 -155 240 -42 83 -109 208 -148 277 -275 491 -348 693 -346
964 0 136 18 216 67 308 53 101 178 191 298 217 59 12 163 5 224 -15z m-685
-55 c20 -11 45 -74 35 -90 -10 -17 -35 -11 -35 9 0 10 -11 35 -25 55 -26 38
-16 48 25 26z m69 -1 c30 -11 32 -14 29 -53 -4 -54 -30 -57 -39 -4 -3 20 -11
44 -19 52 -15 19 -13 19 29 5z m2106 -6 c-4 -10 -11 -34 -14 -53 -9 -51 -35
-47 -39 6 -3 38 0 43 25 52 15 6 30 11 32 11 2 1 0 -7 -4 -16z m78 -5 c-11
-13 -26 -40 -33 -62 -11 -34 -14 -36 -27 -23 -32 32 10 107 61 107 19 0 19 -1
-1 -22z m-2324 -3 c20 -10 34 -29 45 -62 21 -61 20 -80 -3 -92 -22 -12 -28 -6
-60 57 -22 44 -48 51 -31 8 5 -14 5 -41 -1 -66 -5 -23 -8 -45 -5 -47 10 -10
26 9 26 29 0 20 1 20 20 3 14 -12 27 -15 47 -11 21 6 31 3 44 -16 10 -12 21
-19 25 -15 4 4 2 13 -4 19 -16 16 -15 71 0 86 20 20 38 13 55 -22 30 -63 -14
-133 -98 -156 -24 -7 -56 -18 -71 -26 -54 -29 -87 -12 -124 63 -28 58 -33 28
-5 -34 21 -45 45 -63 85 -63 14 0 26 -4 26 -9 0 -12 -71 -71 -85 -71 -31 0
-88 89 -100 154 -7 36 -5 41 32 75 30 27 44 51 57 96 21 72 48 105 94 114 2 1
16 -6 31 -14z m2450 -21 c12 -15 26 -45 31 -68 19 -71 32 -97 57 -107 35 -13
45 -49 28 -106 -16 -54 -68 -123 -93 -123 -9 0 -31 14 -49 32 -34 33 -42 51
-20 46 48 -9 99 41 111 112 l6 35 -19 -40 c-26 -55 -64 -89 -93 -82 -75 17
-166 59 -192 88 -24 27 -27 38 -23 72 7 50 30 76 55 61 18 -12 22 -63 7 -99
-8 -19 -7 -19 16 1 18 16 33 20 56 17 24 -4 34 -1 39 11 9 23 22 20 26 -6 2
-12 9 -23 16 -26 10 -3 11 3 5 25 -4 15 -7 49 -6 76 0 26 -1 47 -3 47 -2 0
-15 -22 -29 -49 -13 -27 -29 -53 -35 -56 -14 -9 -40 13 -40 34 0 33 22 93 41
112 29 29 83 25 108 -7z m-2296 -271 c-5 -16 -8 -97 -7 -180 0 -84 0 -153 -1
-153 -18 0 -80 31 -114 57 -52 39 -79 41 -149 8 -72 -33 -132 -38 -132 -10 0
22 55 141 69 150 7 4 20 0 30 -9 10 -9 26 -16 36 -16 26 0 81 45 111 90 18 26
35 40 57 44 18 3 46 15 62 25 41 27 47 25 38 -6z m2141 -14 c27 -9 53 -25 59
-35 5 -11 28 -38 50 -61 42 -44 81 -55 105 -31 9 9 19 -4 42 -55 40 -89 39
-94 -15 -102 -35 -6 -60 -2 -119 20 -85 31 -101 30 -176 -17 -27 -17 -53 -29
-56 -26 -3 3 2 43 10 88 9 45 16 120 16 167 0 77 2 84 18 78 9 -5 39 -16 66
-26z"/>
<path d="M1330 1481 c0 -18 40 -32 82 -29 56 4 60 24 6 23 -24 0 -53 4 -65 8
-15 5 -23 4 -23 -2z"/>
<path d="M1840 1479 c-14 -6 -40 -8 -58 -5 -23 3 -32 1 -29 -7 9 -28 127 -15
127 13 0 12 -8 12 -40 -1z"/>
<path d="M1295 1403 c-57 -14 -30 -53 36 -53 42 0 73 25 48 41 -8 5 -19 9 -26
9 -6 0 -17 2 -25 4 -7 2 -22 1 -33 -1z"/>
<path d="M1910 1402 c-37 -6 -53 -21 -39 -38 21 -26 122 -13 117 14 -3 18 -41
29 -78 24z"/>
<path d="M1773 1318 c3 -18 -82 -66 -148 -83 -32 -8 -83 -15 -112 -15 -33 0
-53 -4 -53 -11 0 -8 27 -10 89 -7 78 4 99 9 165 42 42 20 80 35 85 31 17 -10
20 11 5 33 -16 23 -36 30 -31 10z"/>
</g>
</svg>
